PathFileType	4	(X/Y/Z)	Patient4_TMGait_0pt6_02_right_41.trc.trc
DataRate	CameraRate	NumFrames	NumMarkers	Units	OrigDataRate	OrigDataStartFrame	OrigNumFrames
79.545454545455	79.545454545455	6	33	mm	79.545454545455	71	       141
Frame#	Time	Sacral			L.Shoulder			Chest			R.Shoulder			Neck			R.ASIS			L.ASIS			R.Thigh.Superior			R.Thigh.Lateral			R.Thigh.Inferior			R.Patella			L.Thigh.Superior			L.Thigh.Lateral			L.Thigh.Inferior			L.Patella			L.Shank.Superior			L.Shank.Lateral			L.Shank.Inferior			R.Shank.Superior			R.Shank.Lateral			R.Shank.Inferior			R.Heel			R.Midfoot.Superior			R.Midfoot.Lateral			R.Toe			L.Heel			L.Midfoot.Lateral			L.Midfoot.Superior			L.Toe			L.Elbow			L.Wrist			R.Elbow			R.Wrist			
		X1	Y1	Z1	X2	Y2	Z2	X3	Y3	Z3	X4	Y4	Z4	X5	Y5	Z5	X6	Y6	Z6	X7	Y7	Z7	X8	Y8	Z8	X9	Y9	Z9	X10	Y10	Z10	X11	Y11	Z11	X12	Y12	Z12	X13	Y13	Z13	X14	Y14	Z14	X15	Y15	Z15	X16	Y16	Z16	X17	Y17	Z17	X18	Y18	Z18	X19	Y19	Z19	X20	Y20	Z20	X21	Y21	Z21	X22	Y22	Z22	X23	Y23	Z23	X24	Y24	Z24	X25	Y25	Z25	X26	Y26	Z26	X27	Y27	Z27	X28	Y28	Z28	X29	Y29	Z29	X30	Y30	Z30	X31	Y31	Z31	X32	Y32	Z32	X33	Y33	Z33	

71	50.330000000000	834.644334556707	1007.873679737635	575.006677484265	1012.992796313187	1434.692590186499	390.454023852219	1132.249944387067	1346.742978098923	529.098250343447	1080.611523547411	1420.195109587510	713.659115012964	1040.088492959610	1484.901779335691	542.119785976842	1067.871146407761	934.318612733485	667.549551712274	1026.421926282562	949.784640955389	393.876522039866	1058.482185264934	722.293454448021	643.149874044779	952.367236836364	632.140944968891	708.031869211193	1008.375165094685	564.530454914652	627.019277175202	987.414185367945	481.218291188197	631.440418603475	1100.103792635773	772.898349001328	418.902985044087	1050.150455717869	640.812154554197	344.398583358265	1160.144391614535	586.022356619203	398.568673363806	1189.999252451112	523.020465322823	394.873485567597	1176.168108306653	450.758926699387	387.182248696181	1113.415766325554	317.250315270848	341.149095220161	1208.653274648345	222.801861634226	390.967443294163	949.175185579150	398.621677711085	638.635631856470	868.086886284205	303.192839877034	701.977461738511	896.821948961126	205.107595921412	634.717678150251	747.788482043307	45.252562885688	605.579080723370	921.563017178312	97.280386078053	635.225353197306	833.641233773375	36.927332336593	675.783557440991	1041.688763243989	41.501560544092	657.206056481488	1135.549157224732	40.121792110487	433.210810016976	1206.815624199037	47.372395378332	351.380852658303	1275.214128505460	126.925385793668	369.400332036219	1408.914806362577	102.060731394490	340.141259183719	850.785251052365	1121.113940905309	287.635182957341	808.421634316995	862.578984248403	293.518278084744	1236.061432501276	1118.647337738762	803.442661541072	1428.439082002660	1221.664927774070	680.146522250992	
72	50.342571428571	836.143418553340	1006.220225148770	572.456996534460	1012.566939845665	1433.372115125746	387.894221909821	1131.980774963321	1346.148137453561	526.877727274406	1079.432354842003	1419.323494395415	711.390042738516	1039.173196683921	1483.830284489340	539.612802156555	1069.103110756514	933.163288230971	665.780117638289	1028.432208839906	948.120996995049	392.040711203958	1058.295437034409	720.756820959989	641.732466693954	951.106736699081	631.515337574687	706.701067597966	1006.372789628176	563.262684198710	625.844044589067	984.473838429478	479.887346937428	630.247447442797	1101.544824058840	769.940192664638	417.137619255951	1049.240542637090	637.452869178300	344.700197972532	1159.419869485339	582.599172754444	398.082972093929	1188.360746041758	519.579212210133	395.636357284311	1174.711780860721	447.261394573113	388.249375913528	1111.683445556687	313.647853823673	343.492455122871	1206.879270776404	219.494494742151	393.517076253364	945.279754653686	397.699503234252	637.745141763838	863.298503202939	303.291341083701	701.458219069995	890.724219797186	204.767701079114	634.382440541933	740.292072561099	45.709152430579	605.724788140545	914.187438390165	97.325751908461	635.323841881346	826.140041208376	37.032177061030	675.858585071610	1034.184049022839	41.234387780904	657.285902058104	1132.593115527887	39.013809988104	436.291501781379	1204.096416539331	45.094424843142	354.621935866355	1273.930876931374	122.669315767493	373.200397689265	1407.026745978823	95.008172879780	344.236618225668	850.097628610228	1120.038244031598	285.553529412365	808.205015671448	861.340381853886	291.933086322285	1234.809836011870	1117.612251016323	801.928281487059	1426.104832263231	1222.719120081417	678.648918333054	
73	50.355142857143	837.732024998004	1004.599438236506	569.620887503335	1012.257257566050	1432.052603361861	385.117740026670	1131.807262843030	1345.620217166158	524.516282666086	1078.256747833030	1418.561522104327	708.962210251815	1038.333052757901	1482.826079772457	536.869370068983	1070.384765596405	931.987946100751	663.868729031667	1030.657022595514	946.561871347912	390.078433118811	1058.388428167466	719.260778951123	640.202178415345	950.189085910201	630.880083653958	705.180029149927	1004.870476007839	561.973796188234	624.560430876464	982.026297862086	478.471111529192	628.920531452801	1103.411969228510	767.240078636253	415.437087500605	1049.010528880201	634.504045953858	344.945536165250	1159.145170118871	579.544667769740	397.962085313500	1187.004963063129	516.213670367339	396.713231005845	1173.342362125931	443.753012968630	389.412300949190	1109.565877323109	310.368693536195	345.604923976011	1204.045913420892	216.016891933251	396.061368958881	941.806852519719	396.728618036458	636.737004925655	858.776081666831	303.481214598943	700.820113358767	884.810127963059	204.460723772353	634.019671997832	732.821316998325	46.344527795557	605.908246359664	906.883182689799	97.405140315647	635.444115527331	818.675256580526	37.202082346621	675.953894461381	1026.713011710318	40.935940892333	657.368422148651	1127.418837631701	38.234524011490	439.009704564704	1199.305514653859	42.957987687155	357.591044627048	1271.029009400291	118.019657206731	377.092569040275	1403.408808027450	86.772187701160	348.512748054267	849.917209724809	1118.695834764167	283.219498979534	809.194002178164	859.724747174411	290.005655172338	1232.873739607258	1116.308570320080	800.827380500225	1423.760846832118	1222.429885188694	677.559929868031	
74	50.367714285714	839.347837020661	1003.101160602981	566.529043425431	1012.113777345015	1430.793080280561	382.138404493695	1131.759686117143	1345.184754107497	522.022747568735	1077.156103360786	1417.957762145188	706.375661706632	1037.631741664055	1481.948724855735	533.895421031493	1071.678605307393	930.848460371546	661.806292244731	1033.022796312078	945.191223135041	387.973291899349	1058.722003402682	717.860556927173	638.559010143260	949.580689475816	630.279132663022	703.465112994742	1003.851246880426	560.709384819153	623.170577371429	980.080886969638	476.993578302723	627.481967658447	1105.610308092049	764.901050168458	413.840416072764	1049.430912313359	632.106787694323	345.033278270267	1159.254297771326	576.967430153090	398.146791937081	1185.878930729586	513.082145773515	397.995935048891	1172.086873578955	440.425440774174	390.542973949679	1107.289531263843	307.524219255734	347.261918854101	1200.474768028249	212.581662178678	398.416053752820	938.749917635617	395.749935021588	635.627678116313	854.498207505082	303.811338164330	700.062706041068	879.086306717710	204.231523764286	633.645982218349	725.381689142480	47.216586167032	606.133778191418	899.672263433256	97.524600646075	635.592569128328	811.250347766255	37.461226079937	676.070915060952	1019.278266467444	40.618493497842	657.446693754066	1120.654522294283	37.737353389807	441.215063635669	1193.036482118891	41.055938700782	360.115858585686	1266.883025290947	113.326929705489	380.816136808967	1398.511468181624	78.083054985107	352.696979437440	850.314108011726	1117.133533129033	280.624012651958	811.397922712173	857.792013921222	287.713256289666	1230.239381099294	1114.757126756946	800.094387756490	1421.471450685958	1220.750348047596	676.903473169562	
75	50.380285714286	840.929892418238	1001.828076114784	563.218989812281	1012.179366581233	1429.666118171303	378.976473227958	1131.863326715098	1344.880030017517	519.407406975553	1076.202049217475	1417.572952945678	703.632651310528	1037.129084346663	1481.267388534129	530.703094721543	1072.946363903744	929.816651477667	659.581147441801	1035.447779235015	944.098892232396	385.707701754895	1059.247483072607	716.623427073668	636.793992774812	949.250017880428	629.764082970201	701.557421761518	1003.298102229896	559.529124894887	621.674345808062	978.658456078702	475.485994256411	625.968687222354	1108.032421085740	763.031070095248	412.361614261175	1050.437685656839	630.386385573817	344.858287501939	1159.667680694891	574.964420828680	398.514080067989	1184.921345624159	510.338013050661	399.312792668969	1170.943324574968	437.456572068529	391.498606985158	1105.017760363886	305.218456500953	348.279306753745	1196.430501481986	209.400427057491	400.418079949562	936.108396599422	394.812959434728	634.444699591166	850.451781995381	304.341290824942	699.194006119440	873.569200068355	204.135748689447	633.284061511046	717.984395371811	48.399964502961	606.405242108415	892.586134716571	97.690568560945	635.779222440848	803.869891084782	37.841861332509	676.209833008111	1011.879363096332	40.294710447341	657.512730411615	1112.890179319759	37.477015295232	442.836468629853	1185.822822784284	39.462997718950	362.086670671517	1261.805252973268	108.937563521800	384.126036548552	1392.714795545700	69.677391573958	356.508017495730	851.355323011551	1115.414712006733	277.765650935536	814.822974960205	855.624167475051	285.032677008784	1226.884813498167	1112.997996831515	799.665482548067	1419.281736447505	1217.614527052969	676.707729998809	
76	50.392857142857	842.429030307715	1000.883891594939	559.732159196346	1012.484584494818	1428.751497903415	375.658735812224	1132.135530029967	1344.753337493233	516.682283582586	1075.458055640168	1417.473286598593	700.739003416874	1036.874083454285	1480.852897809953	527.312850108446	1074.149859179415	928.975010613065	657.181512261495	1037.851383535510	943.369454648159	383.264734184592	1059.915925584061	715.623758590288	634.891899393184	949.179650771975	629.386289606562	699.464656374372	1003.209075753958	558.499803205298	620.071907950235	977.803740419589	473.981622117436	624.433325958418	1110.563862122054	761.725040666987	410.984691388828	1051.929358579400	629.429285746798	344.328346488375	1160.286573937102	573.596712389819	398.899275062828	1184.055187786622	508.101045521662	400.464971774295	1169.869851974866	434.981538587119	392.150444645815	1102.824254625922	303.522717930115	348.544675992677	1192.092386163971	206.647519808474	401.952030516662	933.899661798188	393.968005379915	633.225449370624	846.644765860691	305.136140606148	698.230629339593	868.291235433622	204.235130733414	632.961098908646	710.649396354906	49.987059395525	606.725313273923	885.665620826599	97.910294663431	636.017387107371	796.540879518174	38.386852994919	676.369331313270	1004.511756530254	39.974795198007	657.558800493183	1104.617115450243	37.401490348021	443.877095232876	1178.093264794015	38.219720636560	363.463492702115	1256.031255644313	105.137102030892	386.834156365952	1386.309509165185	62.189187455595	359.710590955371	853.096184971102	1113.616966803985	274.649330609997	819.473808335138	853.321366143711	281.944008428285	1222.783339483439	1111.089818950985	799.460954614132	1417.210128880508	1212.943242432259	677.002194852300	
